name Run_20002_IK.mot
datacolumns 164
datarows 4
range 1.94 1.97
endheader
time	         pelvis_tilt	         pelvis_list	     pelvis_rotation	           pelvis_tx	           pelvis_ty	           pelvis_tz	       hip_flexion_r	     hip_adduction_r	      hip_rotation_r	        knee_angle_r	       ankle_angle_r	       hip_flexion_l	     hip_adduction_l	      hip_rotation_l	        knee_angle_l	       ankle_angle_l	    lumbar_extension	      lumbar_bending	     lumbar_rotation	          arm_flex_r	           arm_add_r	           arm_rot_r	        elbow_flex_r	           pro_sup_r	          arm_flex_l	           arm_add_l	           arm_rot_l	        elbow_flex_l	           pro_sup_l	    subtalar_angle_r	         mtp_angle_r	    subtalar_angle_l	         mtp_angle_l	        wrist_flex_r	         wrist_dev_r	        wrist_flex_l	         wrist_dev_l	             LASI_tx	             LASI_ty	             LASI_tz	             RASI_tx	             RASI_ty	             RASI_tz	             LPSI_tx	             LPSI_ty	             LPSI_tz	             RPSI_tx	             RPSI_ty	             RPSI_tz	             RTH1_tx	             RTH1_ty	             RTH1_tz	             RTH2_tx	             RTH2_ty	             RTH2_tz	             RTH3_tx	             RTH3_ty	             RTH3_tz	             LTH1_tx	             LTH1_ty	             LTH1_tz	             LTH2_tx	             LTH2_ty	             LTH2_tz	             LTH3_tx	             LTH3_ty	             LTH3_tz	             RTB1_tx	             RTB1_ty	             RTB1_tz	             RTB2_tx	             RTB2_ty	             RTB2_tz	             RTB3_tx	             RTB3_ty	             RTB3_tz	             LTB1_tx	             LTB1_ty	             LTB1_tz	             LTB2_tx	             LTB2_ty	             LTB2_tz	             LTB3_tx	             LTB3_ty	             LTB3_tz	             RCAL_tx	             RCAL_ty	             RCAL_tz	             RTOE_tx	             RTOE_ty	             RTOE_tz	             RMT5_tx	             RMT5_ty	             RMT5_tz	             LCAL_tx	             LCAL_ty	             LCAL_tz	             LTOE_tx	             LTOE_ty	             LTOE_tz	             LMT5_tx	             LMT5_ty	             LMT5_tz	             LACR_tx	             LACR_ty	             LACR_tz	             RACR_tx	             RACR_ty	             RACR_tz	             CLAV_tx	             CLAV_ty	             CLAV_tz	               C7_tx	               C7_ty	               C7_tz	             RUA1_tx	             RUA1_ty	             RUA1_tz	             RUA2_tx	             RUA2_ty	             RUA2_tz	             RUA3_tx	             RUA3_ty	             RUA3_tz	             RLEL_tx	             RLEL_ty	             RLEL_tz	             RMEL_tx	             RMEL_ty	             RMEL_tz	             LUA1_tx	             LUA1_ty	             LUA1_tz	             LUA2_tx	             LUA2_ty	             LUA2_tz	             LUA3_tx	             LUA3_ty	             LUA3_tz	             LLEL_tx	             LLEL_ty	             LLEL_tz	             LMEL_tx	             LMEL_ty	             LMEL_tz	      RFAsuperior_tx	      RFAsuperior_ty	      RFAsuperior_tz	        RFAradius_tx	        RFAradius_ty	        RFAradius_tz	          RFAulna_tx	          RFAulna_ty	          RFAulna_tz	      LFAsuperior_tx	      LFAsuperior_ty	      LFAsuperior_tz	        LFAradius_tx	        LFAradius_ty	        LFAradius_tz	          LFAulna_tx	          LFAulna_ty	          LFAulna_tz	
1.94	        -12.37684559	         -2.28722495	         -3.31881094	          1.01116371	          0.98700708	         -0.34942437	         19.51423811	          7.65781909	          4.18615456	        -34.99956814	         22.03721581	         37.03199745	         -2.64010381	         -0.48172421	        -79.49711683	          6.03907580	         -1.22744662	          5.76729098	          9.80284859	        -17.17686632	        -19.38731816	         -8.07778743	         99.77438244	        112.17375508	        -33.21130159	        -15.14045968	         -1.22745929	        102.92763933	        100.73471175	          0.00000000	          0.00000000	          0.00000000	          0.00000000	          0.00000000	          0.00000000	          0.00000000	          0.00000000	          1.03284659	          1.02231733	         -0.46756301	          1.02747379	          1.03109653	         -0.22958890	          0.87174007	          1.08622678	         -0.41837556	          0.86741982	          1.08327431	         -0.30560204	          0.95180223	          0.91250324	         -0.18157376	          0.90879129	          0.76378391	         -0.20839477	          0.96122609	          0.61209236	         -0.22263521	          0.99685960	          0.89831673	         -0.53082451	          0.97244233	          0.73855575	         -0.49777801	          1.06698862	          0.62755328	         -0.49621938	          0.96469067	          0.35743207	         -0.30715177	          0.87858844	          0.34034546	         -0.23296549	          0.85423943	          0.19921524	         -0.31789928	          1.06550480	          0.42097724	         -0.43832613	          0.92669273	          0.42283749	         -0.48953424	          0.88007362	          0.30734762	         -0.44029414	          0.68439511	          0.11343243	         -0.31289713	          0.92225776	          0.07085879	         -0.34703455	          0.87483837	          0.05112438	         -0.24964776	          0.69442256	          0.31737290	         -0.41171864	          0.83990398	          0.12962745	         -0.42518802	          0.77406306	          0.14469597	         -0.51543327	          1.00480447	          1.52310979	         -0.49761657	          1.04815460	          1.48180796	         -0.17816337	          1.08984698	          1.45953040	         -0.31360405	          0.96694033	          1.53269375	         -0.33520607	          0.95321858	          1.37790093	         -0.10727138	          0.99813614	          1.31637411	         -0.09321725	          0.94041364	          1.23492272	         -0.04877341	          0.91563360	          1.17383997	         -0.02171477	          0.90538062	          1.15140042	         -0.10850539	          0.89050745	          1.44217391	         -0.54459788	          0.90493210	          1.36715794	         -0.58270143	          0.82140051	          1.31838595	         -0.60350479	          0.79251332	          1.25773890	         -0.62800078	          0.77626561	          1.23704765	         -0.54120506	          1.01082234	          1.12008150	         -0.04008586	          1.14712013	          1.08851437	         -0.15659106	          1.13366261	          1.03940109	         -0.10961948	          0.84023974	          1.18408671	         -0.62728335	          1.00167640	          1.12188466	         -0.54476473	          0.96976754	          1.06719100	         -0.57952905	
1.95	        -12.59217146	         -1.85471929	         -3.12825106	          1.01234357	          0.99272480	         -0.35016190	         17.35530801	          6.99290002	          4.39971294	        -32.74419090	         20.50713626	         37.92436203	         -2.15387644	         -0.66010001	        -77.14325934	          6.48587832	         -0.77783442	          5.11545105	         10.40006193	        -16.95347712	        -19.32858825	         -7.50719142	        102.21245940	        112.47104645	        -34.50682480	        -15.45401020	         -1.85495250	        104.78398706	        100.49644537	          0.00000000	          0.00000000	          0.00000000	          0.00000000	          0.00000000	          0.00000000	          0.00000000	          0.00000000	          1.03393006	          1.02837867	         -0.46757030	          1.02884115	          1.03569134	         -0.23042960	          0.87288104	          1.09241249	         -0.41828301	          0.86880573	          1.08907300	         -0.30522976	          0.95169104	          0.91670694	         -0.18282732	          0.90274595	          0.76977593	         -0.20891187	          0.94911896	          0.61657707	         -0.22407276	          0.99755832	          0.90528698	         -0.53212569	          0.97543610	          0.74506382	         -0.49914078	          1.07207934	          0.63587422	         -0.49616828	          0.94711504	          0.36098580	         -0.30711516	          0.86104440	          0.34465436	         -0.23359432	          0.83687037	          0.20304969	         -0.31821787	          1.07644885	          0.42784695	         -0.43872959	          0.93736450	          0.42287649	         -0.48871200	          0.89689722	          0.30461616	         -0.43985540	          0.66674216	          0.11933047	         -0.31238085	          0.90284662	          0.07060804	         -0.34726190	          0.85501606	          0.05167898	         -0.25026097	          0.71067874	          0.30417801	         -0.41104461	          0.86748583	          0.12556610	         -0.42493971	          0.80022934	          0.13642810	         -0.51480774	          1.00303454	          1.52965160	         -0.49806381	          1.05035713	          1.48922002	         -0.17959083	          1.09074005	          1.46588961	         -0.31561116	          0.96753456	          1.53843322	         -0.33548737	          0.95692179	          1.38472642	         -0.10779601	          1.00297590	          1.32348026	         -0.09427253	          0.94783106	          1.24109016	         -0.04935303	          0.92384044	          1.17961077	         -0.02237773	          0.91103398	          1.15832149	         -0.10923083	          0.88702421	          1.45079676	         -0.54313613	          0.89961985	          1.37612644	         -0.58262419	          0.81542798	          1.32839541	         -0.60270632	          0.78505298	          1.26851872	         -0.62636481	          0.77022849	          1.24747927	         -0.53956405	          1.02000351	          1.13028944	         -0.04448132	          1.15358040	          1.10609657	         -0.16529815	          1.14413153	          1.05562619	         -0.11883781	          0.83344204	          1.19616396	         -0.62658270	          0.99659681	          1.13584073	         -0.54718149	          0.96506025	          1.08045309	         -0.58116922	
1.96	        -12.72910222	         -1.40465284	         -2.89110268	          1.01381706	          0.99910851	         -0.35085217	         15.15151812	          6.29007144	          4.48458881	        -30.48923253	         18.35262392	         38.53321019	         -1.67852080	         -0.93323636	        -74.39057188	          6.97377542	         -0.40791777	          4.41479774	         10.85472250	        -16.77361219	        -19.22959040	         -6.89642958	        104.60243727	        113.05158634	        -35.78713271	        -15.70170483	         -2.65515126	        106.64768690	        100.92134772	          0.00000000	          0.00000000	          0.00000000	          0.00000000	          0.00000000	          0.00000000	          0.00000000	          0.00000000	          1.03507221	          1.03517921	         -0.46750159	          1.03061412	          1.04104506	         -0.23113322	          0.87408066	          1.09933731	         -0.41811445	          0.87049519	          1.09549067	         -0.30479412	          0.95189827	          0.92148892	         -0.18411721	          0.89708014	          0.77648944	         -0.20954354	          0.93754333	          0.62211376	         -0.22536726	          0.99839376	          0.91297646	         -0.53340606	          0.97804206	          0.75218034	         -0.50033808	          1.07655996	          0.64467573	         -0.49610754	          0.93025299	          0.36567015	         -0.30704700	          0.84422616	          0.35009253	         -0.23419316	          0.82013812	          0.20803908	         -0.31846957	          1.08657307	          0.43479956	         -0.43922674	          0.94745100	          0.42260148	         -0.48754148	          0.91396815	          0.30178506	         -0.43923085	          0.65008350	          0.12691113	         -0.31184191	          0.88355414	          0.06994858	         -0.34778022	          0.83535515	          0.05220197	         -0.25096333	          0.72791529	          0.29003504	         -0.40936814	          0.89591153	          0.12186436	         -0.42541818	          0.82722715	          0.12856369	         -0.51422488	          1.00170405	          1.53644121	         -0.49881285	          1.05254646	          1.49708747	         -0.18111535	          1.09176798	          1.47291216	         -0.31778715	          0.96831672	          1.54462630	         -0.33590736	          0.96037491	          1.39227938	         -0.10835876	          1.00752928	          1.33113636	         -0.09546926	          0.95466410	          1.24803873	         -0.05000444	          0.93130359	          1.18617800	         -0.02321748	          0.91596345	          1.16600350	         -0.11007041	          0.88405612	          1.46007956	         -0.54169206	          0.89496237	          1.38545355	         -0.58245154	          0.81011905	          1.33872450	         -0.60177588	          0.77820702	          1.27963595	         -0.62455783	          0.76487668	          1.25813785	         -0.53774786	          1.02796137	          1.14082304	         -0.04875234	          1.15863004	          1.12410259	         -0.17384321	          1.15320677	          1.07270043	         -0.12775959	          0.82712502	          1.20830409	         -0.62578948	          0.99210789	          1.15016370	         -0.54911783	          0.96123114	          1.09445273	         -0.58314255	
1.97	        -12.81301394	         -0.93950217	         -2.55740762	          1.01531335	          1.00594492	         -0.35145943	         13.00143104	          5.55461369	          4.35273128	        -28.34780558	         15.66516003	         38.91839041	         -1.15763404	         -1.22026189	        -71.27150448	          7.47418527	         -0.13953537	          3.66130888	         11.13521033	        -16.61391263	        -19.08011356	         -6.26948198	        106.93948827	        113.80077353	        -36.99493636	        -15.90665200	         -3.54553157	        108.46796435	        101.43867110	          0.00000000	          0.00000000	          0.00000000	          0.00000000	          0.00000000	          0.00000000	          0.00000000	          0.00000000	          1.03579662	          1.04256940	         -0.46705589	          1.03267773	          1.04677681	         -0.23173943	          0.87486253	          1.10685147	         -0.41756877	          0.87248627	          1.10232576	         -0.30433996	          0.95212037	          0.92680599	         -0.18529868	          0.89182037	          0.78372950	         -0.21018446	          0.92671817	          0.62847855	         -0.22634464	          0.99910198	          0.92112194	         -0.53460035	          0.98024352	          0.75974807	         -0.50137723	          1.08014304	          0.65369372	         -0.49589975	          0.91413496	          0.37146711	         -0.30684585	          0.82824602	          0.35659671	         -0.23461374	          0.80401536	          0.21409625	         -0.31838830	          1.09580846	          0.44168317	         -0.43939771	          0.95708684	          0.42180536	         -0.48614446	          0.93127311	          0.29882477	         -0.43833308	          0.63458319	          0.13607739	         -0.31141591	          0.86433704	          0.06901972	         -0.34875908	          0.81592836	          0.05284300	         -0.25156045	          0.74633684	          0.27513130	         -0.40685944	          0.92502370	          0.11872257	         -0.42626189	          0.85505332	          0.12132125	         -0.51367224	          1.00085643	          1.54332997	         -0.49964704	          1.05486115	          1.50518782	         -0.18268338	          1.09297818	          1.48031923	         -0.32000926	          0.96927185	          1.55109908	         -0.33648447	          0.96390353	          1.40034172	         -0.10873892	          1.01187102	          1.33912369	         -0.09677552	          0.96076611	          1.25556879	         -0.05063828	          0.93798459	          1.19326134	         -0.02414429	          0.92045811	          1.17409409	         -0.11096907	          0.88170474	          1.46970391	         -0.54046217	          0.89110049	          1.39481378	         -0.58219508	          0.80550846	          1.34916673	         -0.60069620	          0.77205492	          1.29085293	         -0.62256037	          0.76018340	          1.26892075	         -0.53575473	          1.03487879	          1.15157864	         -0.05287827	          1.16241034	          1.14220611	         -0.18198381	          1.16082203	          1.09019304	         -0.13620980	          0.82141674	          1.22032063	         -0.62487672	          0.98825830	          1.16452836	         -0.55082264	          0.95808750	          1.10857739	         -0.58508665	
